<svg width="85" height="88" viewBox="0 0 85 88" fill="none" xmlns="http://www.w3.org/2000/svg">
<path d="M85 8.2038C85 6.08671 84.1965 4.09391 82.735 2.59409L82.4645 2.31651C79.4445 -0.774237 74.547 -0.770101 71.5354 2.31651L67.3688 6.59207C65.5439 5.63917 63.194 5.85875 61.7082 7.38338L7.44917 63.0615C7.14636 63.3723 6.97679 63.7949 6.97679 64.2341C6.97679 64.2838 7.00102 64.3293 7.00505 64.3791L2.51134 82.82L0.472384 84.9123C-0.157461 85.5586 -0.157461 86.6068 0.472384 87.2572C0.787307 87.5804 1.19912 87.7419 1.61501 87.7419C2.02683 87.7419 2.44269 87.5804 2.75764 87.2572L4.79659 85.1649L23.2068 80.4419C23.2351 80.4336 23.2553 80.4088 23.2835 80.4005C23.5096 80.33 23.7196 80.2182 23.9012 80.0483C23.9134 80.0359 23.9335 80.0317 23.9457 80.0152C23.9497 80.011 23.9537 80.011 23.9578 80.0069L69.9316 32.8306L71.1469 34.0777C71.8171 34.7654 71.8171 35.884 71.1469 36.5718L57.0116 51.0768C56.3818 51.7232 56.3818 52.7714 57.0116 53.4218C57.3265 53.7449 57.7383 53.9065 58.1542 53.9065C58.5661 53.9065 58.9819 53.7449 59.2969 53.4218L73.4322 38.9168C75.3581 36.9364 75.3581 33.7173 73.4322 31.7369L72.2169 30.4898L78.2125 24.3374C79.129 23.3969 79.6337 22.1499 79.6337 20.8241C79.6337 19.7759 79.3066 18.7816 78.7212 17.9448L82.7344 13.8225C84.196 12.3268 84.9994 10.334 84.9994 8.21689L85 8.2038ZM9.55657 67.5655L10.7153 68.7545L19.6582 77.9272L6.18956 81.3825L9.55677 67.5616L9.55657 67.5655ZM22.8154 76.4855L10.8723 64.2301L55.7041 18.2258L67.643 30.477L22.8113 76.4812L22.8154 76.4855ZM75.9282 21.9836L69.9326 28.136L57.9937 15.8848L63.9893 9.73236C64.6191 9.08605 65.6406 9.08605 66.2744 9.73236L75.9279 19.6426C76.5578 20.2889 76.5578 21.3412 75.9279 21.9875L75.9282 21.9836ZM80.4502 11.4685L76.4935 15.5328L69.8599 8.72573L73.8166 4.66558C75.5688 2.86752 78.4233 2.85925 80.1796 4.66558L80.4501 4.94317C81.2979 5.81735 81.7703 6.9733 81.7703 8.20786C81.7703 9.43838 81.3019 10.5984 80.4501 11.4725L80.4502 11.4685Z" fill="white"/>
</svg>
