<svg width="100" height="92" viewBox="0 0 100 92" fill="none" xmlns="http://www.w3.org/2000/svg">
<path d="M98.0009 14.7665L97.8666 14.6904C96.8976 14.1548 95.789 14.0506 94.7837 14.3191C93.7811 14.5848 92.8765 15.2233 92.3048 16.1649L91.78 17.0704L98.9659 21.1988L99.4799 20.3146C100.022 19.3463 100.127 18.2364 99.8571 17.232C99.59 16.2343 98.9471 15.3354 98.0009 14.7665ZM73.3777 64.5446L66.8575 60.7982L65.616 70.5027L73.3777 64.5446ZM67.6521 58.6532L74.838 62.7829L97.8344 23.1501L90.6485 19.0204L67.6521 58.6532ZM80.6374 31.7634V3.04919C80.6374 2.21043 80.2925 1.44646 79.7395 0.893521C79.1838 0.343251 78.4161 0 77.5733 0H21.9933C21.1531 0 20.3854 0.344587 19.8311 0.896193C19.2768 1.4478 18.9305 2.21177 18.9305 3.04919V80.3208C18.9305 81.1582 19.2768 81.9222 19.8311 82.4738C20.3854 83.0254 21.1531 83.37 21.9933 83.37H77.5733C78.4175 83.37 79.1838 83.0267 79.7355 82.4778C80.2925 81.9235 80.6374 81.1609 80.6374 80.3208V57.2976L76.019 65.2591C75.9466 65.382 75.8499 65.4942 75.7305 65.5864L64.8402 73.9459C64.6107 74.1209 64.3141 74.2104 64.0054 74.1716C63.3853 74.0942 62.9465 73.5292 63.0243 72.9122L64.7664 59.297C64.7852 59.1527 64.8322 59.0112 64.9087 58.8776L80.6374 31.7634ZM27.0116 74.185C26.3848 74.185 25.8748 73.6775 25.8748 73.0537C25.8748 72.43 26.3848 71.9225 27.0116 71.9225H59.9454C60.5722 71.9225 61.0822 72.43 61.0822 73.0537C61.0822 73.6775 60.5722 74.185 59.9454 74.185H27.0116ZM27.0116 47.2992C26.3848 47.2992 25.8748 46.7917 25.8748 46.168C25.8748 45.5442 26.3848 45.0367 27.0116 45.0367H67.3031C67.9299 45.0367 68.4399 45.5442 68.4399 46.168C68.4399 46.7917 67.9299 47.2992 67.3031 47.2992H27.0116ZM27.0116 56.2612C26.3848 56.2612 25.8748 55.7536 25.8748 55.1299C25.8748 54.5062 26.3848 53.9986 27.0116 53.9986H62.4431C63.0699 53.9986 63.58 54.5062 63.58 55.1299C63.58 55.7536 63.0699 56.2612 62.4431 56.2612H27.0116ZM27.0116 65.2231C26.3848 65.2231 25.8748 64.7155 25.8748 64.0918C25.8748 63.4681 26.3848 62.9606 27.0116 62.9606H59.9642C60.591 62.9606 61.101 63.4681 61.101 64.0918C61.101 64.7155 60.591 65.2231 59.9642 65.2231H27.0116ZM27.0116 11.4475C26.3848 11.4475 25.8748 10.94 25.8748 10.3162C25.8748 9.69251 26.3848 9.18498 27.0116 9.18498H72.5549C73.1817 9.18498 73.6917 9.69251 73.6917 10.3162C73.6917 10.94 73.1817 11.4475 72.5549 11.4475H27.0116ZM27.0116 20.4134C26.3848 20.4134 25.8748 19.9059 25.8748 19.2822C25.8748 18.6584 26.3848 18.1509 27.0116 18.1509H72.5549C73.1817 18.1509 73.6917 18.6584 73.6917 19.2822C73.6917 19.9059 73.1817 20.4134 72.5549 20.4134H27.0116ZM27.0116 29.3754C26.3848 29.3754 25.8748 28.8678 25.8748 28.2441C25.8748 27.6204 26.3848 27.1128 27.0116 27.1128H72.5549C73.1817 27.1128 73.6917 27.6204 73.6917 28.2441C73.6917 28.8678 73.1817 29.3754 72.5549 29.3754H27.0116ZM27.0116 38.3373C26.3848 38.3373 25.8748 37.8298 25.8748 37.206C25.8748 36.5823 26.3848 36.0748 27.0116 36.0748H72.5549C73.1817 36.0748 73.6917 36.5823 73.6917 37.206C73.6917 37.8298 73.1817 38.3373 72.5549 38.3373H27.0116ZM51.7838 85.6325H21.9933C20.5236 85.6325 19.1882 85.0341 18.2232 84.0739C17.2582 83.1135 16.6569 81.7819 16.6569 80.3208V7.13882L2.53069 9.61771C1.70124 9.76196 1.00466 10.2334 0.556378 10.8705C0.108098 11.5089 -0.099936 12.325 0.0463589 13.1531L13.5296 89.2493C13.6746 90.0747 14.1497 90.7679 14.7899 91.214C15.4328 91.6614 16.2515 91.8671 17.0837 91.7215L51.7838 85.6325Z" fill="white"/>
</svg>
