<svg width="31" height="30" viewBox="0 0 31 30" fill="none" xmlns="http://www.w3.org/2000/svg">
<path d="M15.4502 0C12.6502 0 10.5669 0.0333328 9.2002 0.1C7.83353 0.166666 6.6502 0.4 5.6502 0.799999C4.6502 1.2 3.76686 1.78333 3.0002 2.55C2.23353 3.31667 1.6502 4.2 1.2502 5.2C0.850195 6.2 0.616862 7.38333 0.550195 8.75C0.483529 10.1167 0.450195 12.2 0.450195 15C0.450195 17.8 0.483529 19.8833 0.550195 21.25C0.616862 22.6167 0.850195 23.8 1.2502 24.8C1.6502 25.8 2.23353 26.6833 3.0002 27.45C3.76686 28.2167 4.6502 28.8 5.6502 29.2C6.6502 29.6 7.83353 29.8333 9.2002 29.9C10.5669 29.9667 12.6502 30 15.4502 30C18.2502 30 20.3335 29.9667 21.7002 29.9C23.0669 29.8333 24.2502 29.6 25.2502 29.2C26.2502 28.8 27.1335 28.2167 27.9002 27.45C28.6669 26.6833 29.2502 25.8 29.6502 24.8C30.0502 23.8 30.2835 22.6167 30.3502 21.25C30.4169 19.8833 30.4502 17.8 30.4502 15C30.4502 12.2 30.4169 10.1167 30.3502 8.75C30.2835 7.38333 30.0502 6.2 29.6502 5.2C29.2502 4.2 28.6669 3.31667 27.9002 2.55C27.1335 1.78333 26.2502 1.2 25.2502 0.799999C24.2502 0.4 23.0669 0.166666 21.7002 0.1C20.3335 0.0333328 18.2502 0 15.4502 0ZM14.1502 2.7H15.4502C18.2502 2.7 20.2835 2.73333 21.5502 2.8C22.6169 2.86667 23.5002 3.03333 24.2002 3.3C24.9002 3.56667 25.5002 3.95 26.0002 4.45C26.5002 4.95 26.8835 5.55 27.1502 6.25C27.4169 6.95 27.5835 7.83333 27.6502 8.9C27.7169 10.1667 27.7502 12.2 27.7502 15C27.7502 17.8 27.7169 19.8333 27.6502 21.1C27.5835 22.1667 27.4169 23.05 27.1502 23.75C26.8835 24.45 26.5002 25.05 26.0002 25.55C25.5002 26.05 24.9002 26.4333 24.2002 26.7C23.5002 26.9667 22.6169 27.1333 21.5502 27.2C20.2169 27.2667 18.1835 27.3 15.4502 27.3C12.7169 27.3 10.6835 27.2667 9.3502 27.2C8.28353 27.1333 7.4002 26.9667 6.7002 26.7C6.0002 26.4333 5.4002 26.05 4.9002 25.55C4.4002 25.05 4.01686 24.45 3.7502 23.75C3.48353 23.05 3.31686 22.1667 3.2502 21.1C3.18353 19.7667 3.1502 17.7167 3.1502 14.95C3.1502 12.1833 3.18353 10.1667 3.2502 8.9C3.31686 7.83333 3.48353 6.95 3.7502 6.25C4.01686 5.55 4.4002 4.95 4.9002 4.45C5.4002 3.95 6.0002 3.56667 6.7002 3.3C7.4002 3.03333 8.31686 2.86667 9.4502 2.8C10.5835 2.73333 12.1502 2.7 14.1502 2.7ZM23.4502 5.2C22.9835 5.2 22.5669 5.36667 22.2002 5.7C21.8335 6.03333 21.6502 6.45 21.6502 6.95C21.6502 7.45 21.8335 7.88333 22.2002 8.25C22.5669 8.61667 23.0002 8.8 23.5002 8.8C24.0002 8.8 24.4169 8.61667 24.7502 8.25C25.0835 7.88333 25.2502 7.45 25.2502 6.95C25.2502 6.45 25.0835 6.03333 24.7502 5.7C24.4169 5.36667 23.9835 5.2 23.4502 5.2ZM15.4502 7.3C14.0502 7.3 12.7502 7.63333 11.5502 8.3C10.3502 8.96667 9.4002 9.9 8.7002 11.1C8.0002 12.3 7.6502 13.6 7.6502 15C7.6502 16.4 8.0002 17.7 8.7002 18.9C9.4002 20.1 10.3502 21.0333 11.5502 21.7C12.7502 22.3667 14.0502 22.7 15.4502 22.7C16.8502 22.7 18.1335 22.35 19.3002 21.65C20.4669 20.95 21.3835 20.0167 22.0502 18.85C22.7169 17.6833 23.0502 16.4 23.0502 15C23.0502 13.6 22.7169 12.3167 22.0502 11.15C21.3835 9.98333 20.4669 9.05 19.3002 8.35C18.1335 7.65 16.8502 7.3 15.4502 7.3ZM15.4502 10C16.3169 10 17.1502 10.2167 17.9502 10.65C18.7502 11.0833 19.3669 11.7 19.8002 12.5C20.2335 13.3 20.4502 14.1333 20.4502 15C20.4502 15.8667 20.2335 16.7 19.8002 17.5C19.3669 18.3 18.7502 18.9167 17.9502 19.35C17.1502 19.7833 16.3169 20 15.4502 20C14.0502 20 12.8669 19.5167 11.9002 18.55C10.9335 17.5833 10.4502 16.4 10.4502 15C10.4502 13.6 10.9335 12.4167 11.9002 11.45C12.8669 10.4833 14.0502 10 15.4502 10Z" fill="#201F31"/>
</svg>
