<svg width="31" height="30" viewBox="0 0 31 30" fill="none" xmlns="http://www.w3.org/2000/svg">
<path d="M0.360352 2.1C0.360352 1.56667 0.577018 1.08333 1.01035 0.65C1.44368 0.216666 1.96035 -4.47035e-07 2.56035 -4.47035e-07H28.1604C28.7604 -4.47035e-07 29.277 0.216666 29.7104 0.65C30.1437 1.08333 30.3604 1.56667 30.3604 2.1V27.9C30.3604 28.4333 30.1437 28.9167 29.7104 29.35C29.277 29.7833 28.7604 30 28.1604 30H2.56035C1.96035 30 1.44368 29.7833 1.01035 29.35C0.577018 28.9167 0.360352 28.4333 0.360352 27.9V2.1ZM9.66035 25.1V11.6H5.16035V25.1H9.66035ZM7.36035 9.7C8.16035 9.7 8.79369 9.48333 9.26035 9.05C9.72702 8.61667 9.94369 8.06667 9.91035 7.4C9.87702 6.73333 9.64369 6.16667 9.21035 5.7C8.77702 5.23333 8.17702 5 7.41035 5C6.64369 5 6.02702 5.23333 5.56035 5.7C5.09368 6.16667 4.86035 6.73333 4.86035 7.4C4.86035 8.06667 5.09368 8.61667 5.56035 9.05C6.02702 9.48333 6.62702 9.7 7.36035 9.7ZM16.5604 25.1V17.5C16.5604 17.0333 16.627 16.6667 16.7604 16.4C16.8937 16 17.1604 15.6333 17.5604 15.3C17.9604 14.9667 18.4604 14.8 19.0604 14.8C20.5937 14.8 21.3604 15.8333 21.3604 17.9V25.1H25.8604V17.3C25.8604 15.3 25.377 13.7833 24.4104 12.75C23.4437 11.7167 22.1937 11.2 20.6604 11.2C19.5937 11.2 18.6937 11.4667 17.9604 12C17.427 12.3333 16.9604 12.8333 16.5604 13.5V11.6H12.0604C12.127 12.1333 12.127 14.5333 12.0604 18.8V25.1H16.5604Z" fill="#201F31"/>
</svg>
