<svg width="104" height="20" viewBox="0 0 104 20" fill="none" xmlns="http://www.w3.org/2000/svg">
<path d="M0.152 1.144H6.968V13.888H19.352V19H0.152V1.144ZM32.9746 0.808H34.0546C35.6386 0.808 37.0786 0.92 38.3746 1.144C39.6866 1.352 40.7826 1.632 41.6626 1.984C42.5586 2.32 43.3346 2.744 43.9906 3.256C44.6626 3.752 45.1906 4.256 45.5746 4.768C45.9586 5.28 46.2626 5.84 46.4866 6.448C46.7266 7.056 46.8786 7.608 46.9426 8.104C47.0226 8.6 47.0626 9.12 47.0626 9.664V10.384C47.0626 10.928 47.0226 11.448 46.9426 11.944C46.8786 12.44 46.7266 13 46.4866 13.624C46.2626 14.232 45.9586 14.8 45.5746 15.328C45.2066 15.84 44.6866 16.352 44.0146 16.864C43.3426 17.376 42.5666 17.808 41.6866 18.16C40.8066 18.512 39.7106 18.792 38.3986 19C37.1026 19.224 35.6546 19.336 34.0546 19.336H32.9746C31.3746 19.336 29.9186 19.224 28.6066 19C27.3106 18.792 26.2146 18.512 25.3186 18.16C24.4386 17.808 23.6626 17.376 22.9906 16.864C22.3186 16.352 21.7906 15.84 21.4066 15.328C21.0386 14.8 20.7346 14.232 20.4946 13.624C20.2706 13 20.1186 12.44 20.0386 11.944C19.9746 11.448 19.9426 10.928 19.9426 10.384V9.664C19.9426 9.12 19.9746 8.6 20.0386 8.104C20.1186 7.608 20.2706 7.056 20.4946 6.448C20.7346 5.84 21.0386 5.28 21.4066 4.768C21.7906 4.256 22.3186 3.752 22.9906 3.256C23.6626 2.744 24.4386 2.32 25.3186 1.984C26.2146 1.632 27.3106 1.352 28.6066 1.144C29.9186 0.92 31.3746 0.808 32.9746 0.808ZM40.0066 10.168V9.832C40.0066 9.304 39.9106 8.816 39.7186 8.368C39.5266 7.904 39.1986 7.456 38.7346 7.024C38.2866 6.592 37.6146 6.248 36.7186 5.992C35.8226 5.736 34.7506 5.608 33.5026 5.608C32.2226 5.608 31.1346 5.736 30.2386 5.992C29.3426 6.248 28.6706 6.592 28.2226 7.024C27.7746 7.456 27.4546 7.904 27.2626 8.368C27.0866 8.816 26.9986 9.304 26.9986 9.832V10.12C26.9986 10.648 27.0946 11.152 27.2866 11.632C27.4786 12.096 27.7986 12.56 28.2466 13.024C28.6946 13.472 29.3666 13.832 30.2626 14.104C31.1746 14.376 32.2546 14.512 33.5026 14.512C34.7506 14.512 35.8226 14.384 36.7186 14.128C37.6306 13.856 38.3106 13.496 38.7586 13.048C39.2066 12.6 39.5266 12.144 39.7186 11.68C39.9106 11.2 40.0066 10.696 40.0066 10.168ZM60.7614 19.336H60.2094C58.3374 19.336 56.6734 19.144 55.2174 18.76C53.7614 18.36 52.6014 17.864 51.7374 17.272C50.8734 16.664 50.1614 15.952 49.6014 15.136C49.0414 14.304 48.6574 13.504 48.4494 12.736C48.2574 11.952 48.1614 11.152 48.1614 10.336V9.664C48.1614 8.816 48.2574 8.016 48.4494 7.264C48.6414 6.496 49.0174 5.712 49.5774 4.912C50.1534 4.096 50.8894 3.4 51.7854 2.824C52.6974 2.232 53.9214 1.752 55.4574 1.384C57.0094 1 58.7934 0.808 60.8094 0.808H61.7454C63.8254 0.808 65.6494 0.975999 67.2174 1.312C68.8014 1.632 70.0174 2.032 70.8654 2.512C71.7294 2.976 72.4254 3.544 72.9534 4.216C73.4974 4.872 73.8494 5.472 74.0094 6.016C74.1694 6.544 74.2574 7.104 74.2734 7.696V7.72H67.1694C67.1374 7.576 67.0814 7.44 67.0014 7.312C66.9374 7.168 66.7774 6.976 66.5214 6.736C66.2654 6.496 65.9454 6.296 65.5614 6.136C65.1934 5.96 64.6414 5.808 63.9054 5.68C63.1694 5.536 62.3294 5.464 61.3854 5.464C57.2734 5.464 55.2174 6.936 55.2174 9.88V10.144C55.2174 11.408 55.7214 12.48 56.7294 13.36C57.7374 14.224 59.2734 14.656 61.3374 14.656C62.2174 14.656 63.0174 14.6 63.7374 14.488C64.4574 14.36 65.0334 14.208 65.4654 14.032C65.9134 13.856 66.2894 13.664 66.5934 13.456C66.9134 13.248 67.1294 13.056 67.2414 12.88C67.3694 12.704 67.4334 12.552 67.4334 12.424H61.1694V8.944H74.3934V19H70.0974C69.9054 18.056 69.6254 17.232 69.2574 16.528C67.5614 18.4 64.7294 19.336 60.7614 19.336ZM89.0137 0.808H90.0937C91.6777 0.808 93.1177 0.92 94.4137 1.144C95.7257 1.352 96.8217 1.632 97.7017 1.984C98.5977 2.32 99.3737 2.744 100.03 3.256C100.702 3.752 101.23 4.256 101.614 4.768C101.998 5.28 102.302 5.84 102.526 6.448C102.766 7.056 102.918 7.608 102.982 8.104C103.062 8.6 103.102 9.12 103.102 9.664V10.384C103.102 10.928 103.062 11.448 102.982 11.944C102.918 12.44 102.766 13 102.526 13.624C102.302 14.232 101.998 14.8 101.614 15.328C101.246 15.84 100.726 16.352 100.054 16.864C99.3817 17.376 98.6057 17.808 97.7257 18.16C96.8457 18.512 95.7497 18.792 94.4377 19C93.1417 19.224 91.6937 19.336 90.0937 19.336H89.0137C87.4137 19.336 85.9577 19.224 84.6457 19C83.3497 18.792 82.2537 18.512 81.3577 18.16C80.4777 17.808 79.7017 17.376 79.0297 16.864C78.3577 16.352 77.8297 15.84 77.4457 15.328C77.0777 14.8 76.7737 14.232 76.5337 13.624C76.3097 13 76.1577 12.44 76.0777 11.944C76.0137 11.448 75.9817 10.928 75.9817 10.384V9.664C75.9817 9.12 76.0137 8.6 76.0777 8.104C76.1577 7.608 76.3097 7.056 76.5337 6.448C76.7737 5.84 77.0777 5.28 77.4457 4.768C77.8297 4.256 78.3577 3.752 79.0297 3.256C79.7017 2.744 80.4777 2.32 81.3577 1.984C82.2537 1.632 83.3497 1.352 84.6457 1.144C85.9577 0.92 87.4137 0.808 89.0137 0.808ZM96.0457 10.168V9.832C96.0457 9.304 95.9497 8.816 95.7577 8.368C95.5657 7.904 95.2377 7.456 94.7737 7.024C94.3257 6.592 93.6537 6.248 92.7577 5.992C91.8617 5.736 90.7897 5.608 89.5417 5.608C88.2617 5.608 87.1737 5.736 86.2777 5.992C85.3817 6.248 84.7097 6.592 84.2617 7.024C83.8137 7.456 83.4937 7.904 83.3017 8.368C83.1257 8.816 83.0377 9.304 83.0377 9.832V10.12C83.0377 10.648 83.1337 11.152 83.3257 11.632C83.5177 12.096 83.8377 12.56 84.2857 13.024C84.7337 13.472 85.4057 13.832 86.3017 14.104C87.2137 14.376 88.2937 14.512 89.5417 14.512C90.7897 14.512 91.8617 14.384 92.7577 14.128C93.6697 13.856 94.3497 13.496 94.7977 13.048C95.2457 12.6 95.5657 12.144 95.7577 11.68C95.9497 11.2 96.0457 10.696 96.0457 10.168Z" fill="#615EF0"/>
</svg>
