<svg width="31" height="26" viewBox="0 0 31 26" fill="none" xmlns="http://www.w3.org/2000/svg">
<path d="M10.3102 25.1001C13.9102 25.1001 17.1102 24.2001 19.9102 22.4001C22.4435 20.7334 24.4102 18.5334 25.8102 15.8001C27.1435 13.1334 27.8102 10.4001 27.8102 7.6001V6.8001C29.0102 5.93343 30.0435 4.86676 30.9102 3.6001C29.7768 4.13343 28.6102 4.46676 27.4102 4.6001C28.7435 3.8001 29.6435 2.66676 30.1102 1.2001C28.8435 1.93343 27.5435 2.43343 26.2102 2.7001C25.2102 1.7001 24.0268 1.08343 22.6602 0.850098C21.2935 0.616764 19.9935 0.833431 18.7602 1.5001C17.5268 2.16676 16.6268 3.13343 16.0602 4.4001C15.4935 5.66676 15.3768 6.96676 15.7102 8.3001C13.2435 8.16676 10.8935 7.5501 8.66016 6.4501C6.42682 5.3501 4.54349 3.83343 3.01016 1.9001C2.21016 3.3001 1.99349 4.78343 2.36016 6.3501C2.72682 7.91676 3.57682 9.16676 4.91016 10.1001C3.91016 10.0334 2.97682 9.76676 2.11016 9.3001V9.4001C2.11016 10.8668 2.57682 12.1668 3.51016 13.3001C4.44349 14.4334 5.61016 15.1334 7.01016 15.4001C6.47682 15.6001 5.94349 15.7001 5.41016 15.7001C5.01016 15.7001 4.64349 15.6668 4.31016 15.6001C4.71016 16.8001 5.42682 17.8001 6.46016 18.6001C7.49349 19.4001 8.67682 19.8001 10.0102 19.8001C8.94349 20.6668 7.74349 21.3334 6.41016 21.8001C5.07682 22.2668 3.74349 22.5001 2.41016 22.5001C1.87682 22.5001 1.37682 22.4668 0.910156 22.4001C3.77682 24.2001 6.91016 25.1001 10.3102 25.1001Z" fill="#201F31"/>
</svg>
