<svg width="30" height="22" viewBox="0 0 30 22" fill="none" xmlns="http://www.w3.org/2000/svg">
<path d="M15.1 0.700048H15.3C21.4333 0.766716 25.2333 1.00005 26.7 1.40005C27.3667 1.53338 27.9333 1.85005 28.4 2.35005C28.8667 2.85005 29.1833 3.41672 29.35 4.05005C29.5167 4.68338 29.6667 5.56672 29.8 6.70005L29.9 7.50005C29.9667 8.76672 30 10 30 11.2V11.4C30 12.6667 29.9333 13.9334 29.8 15.2V15.6C29.6667 16.8667 29.5167 17.8334 29.35 18.5C29.1833 19.1667 28.8667 19.7334 28.4 20.2C27.9333 20.6667 27.3667 21 26.7 21.2C25.7667 21.4667 23.7 21.6334 20.5 21.7C18.7 21.7667 16.9 21.8 15.1 21.8H14.9C13.1 21.8 11.2667 21.7667 9.4 21.7H8.3C5.76667 21.5667 4.13333 21.4 3.4 21.2C2.66667 21 2.06667 20.6667 1.6 20.2C1.13333 19.7334 0.8 19.1667 0.6 18.5C0.4 17.8334 0.266667 16.8667 0.2 15.6V15.2C0.0666667 13.9334 0 12.6667 0 11.4V11.2C0 10 0.0333333 8.86672 0.1 7.80005L0.2 6.70005C0.333333 5.56672 0.483333 4.68338 0.65 4.05005C0.816667 3.41672 1.13333 2.85005 1.6 2.35005C2.06667 1.85005 2.63333 1.53338 3.3 1.40005C4.1 1.20005 5.76667 1.03338 8.3 0.900049L9.4 0.800049C11.2 0.800049 12.9667 0.766716 14.7 0.700048H15.1ZM12 6.80005V15.8L19.8 11.3L12 6.80005Z" fill="#201F31"/>
</svg>
